<?xml version="1.0" encoding="UTF-8" standalone="no"?>
<!-- Created with Inkscape (http://www.inkscape.org/) -->

<svg
   xmlns:dc="http://purl.org/dc/elements/1.1/"
   xmlns:cc="http://creativecommons.org/ns#"
   xmlns:rdf="http://www.w3.org/1999/02/22-rdf-syntax-ns#"
   xmlns:svg="http://www.w3.org/2000/svg"
   xmlns="http://www.w3.org/2000/svg"
   xmlns:sodipodi="http://sodipodi.sourceforge.net/DTD/sodipodi-0.dtd"
   xmlns:inkscape="http://www.inkscape.org/namespaces/inkscape"
   width="92.798256mm"
   height="21.402065mm"
   viewBox="0 0 92.798256 21.402065"
   version="1.1"
   id="svg8"
   inkscape:version="0.92.3 (2405546, 2018-03-11)"
   sodipodi:docname="logo.svg">
  <defs
     id="defs2" />
  <sodipodi:namedview
     id="base"
     pagecolor="#ffffff"
     bordercolor="#666666"
     borderopacity="1.0"
     inkscape:pageopacity="0.0"
     inkscape:pageshadow="2"
     inkscape:zoom="0.7"
     inkscape:cx="521.41918"
     inkscape:cy="-61.562724"
     inkscape:document-units="mm"
     inkscape:current-layer="layer1"
     showgrid="false"
     inkscape:window-width="1860"
     inkscape:window-height="1001"
     inkscape:window-x="30"
     inkscape:window-y="30"
     inkscape:window-maximized="0"
     fit-margin-top="0"
     fit-margin-left="0"
     fit-margin-right="0"
     fit-margin-bottom="0" />
  <metadata
     id="metadata5">
    <rdf:RDF>
      <cc:Work
         rdf:about="">
        <dc:format>image/svg+xml</dc:format>
        <dc:type
           rdf:resource="http://purl.org/dc/dcmitype/StillImage" />
        <dc:title></dc:title>
      </cc:Work>
    </rdf:RDF>
  </metadata>
  <g
     inkscape:label="Layer 1"
     inkscape:groupmode="layer"
     id="layer1"
     transform="translate(-43.889299,-89.260072)">
    <path
       style="fill:#008000;fill-opacity:1;stroke:#008000;stroke-width:0.17067717"
       d="m 50.038595,89.345411 c -3.359645,0 -6.063957,2.800839 -6.063957,6.279773 v 8.671856 c 0,3.47893 2.704312,6.27976 6.063957,6.27976 h 80.499175 c 3.35964,0 6.06445,-2.80083 6.06445,-6.27976 v -8.671856 c 0,-3.478934 -2.70481,-6.279773 -6.06445,-6.279773 z m 42.223299,2.189649 c 0.691355,0 1.254784,0.186023 1.690284,0.558067 0.4355,0.372044 0.653577,0.876899 0.653577,1.513885 0,0.648259 -0.226242,1.164046 -0.678074,1.547367 -0.44639,0.37768 -1.001651,0.566185 -1.665787,0.566185 -0.647807,0 -1.186738,-0.188505 -1.616795,-0.566185 -0.430056,-0.383321 -0.644757,-0.899108 -0.644757,-1.547367 0,-0.636986 0.209423,-1.141841 0.62859,-1.513885 0.424613,-0.372044 0.968825,-0.558067 1.632962,-0.558067 z m 40.665296,1.894383 v 2.82382 h 1.24101 v 2.630017 h -1.24101 l -0.009,2.73098 c 0,0.21984 0.0572,0.42277 0.17148,0.6088 0.11431,0.18038 0.32373,0.2704 0.62859,0.2704 0.24497,0 0.53893,-0.0393 0.88188,-0.11821 v 2.52805 l -0.30228,0.14408 c -0.20142,0.0958 -0.51171,0.18884 -0.93088,0.27903 -0.41917,0.0958 -0.84618,0.14358 -1.28168,0.14358 -2.0795,0 -3.11414,-1.13603 -3.10326,-3.40776 l 0.009,-3.17895 h -0.88189 v -2.630017 h 0.84073 v -1.935986 z m -71.670007,2.654878 c 0.936325,0 1.750003,0.208402 2.441358,0.625541 0.691354,0.411504 1.205791,0.955646 1.543302,1.632091 0.342956,0.676446 0.514434,1.437444 0.514434,2.283007 0,0.19165 -0.01344,0.3916 -0.04066,0.60017 -0.049,0.16347 -0.08694,0.25648 -0.114153,0.27903 -0.02178,0.0169 -0.0847,0.003 -0.188136,-0.0421 H 60.49778 c 0,0.56933 0.127765,1.04285 0.383622,1.42053 0.261301,0.37204 0.615307,0.55807 1.061694,0.55807 0.39195,0 0.677746,-0.0985 0.857391,-0.29578 0.179647,-0.1973 0.274749,-0.46241 0.285633,-0.79499 h 2.50701 v 1.89388 c -0.718575,0.4453 -1.426099,0.76116 -2.122899,0.94719 -0.691355,0.18602 -1.472859,0.27903 -2.34386,0.27903 -0.881887,0 -1.682117,-0.20592 -2.400694,-0.61743 -0.713131,-0.41148 -1.268395,-0.9636 -1.665788,-1.65695 -0.397391,-0.69335 -0.595764,-1.45435 -0.595764,-2.283 0,-0.93011 0.18781,-1.756273 0.563429,-2.477815 0.375618,-0.727178 0.927995,-1.299166 1.657458,-1.716309 0.734908,-0.422777 1.592296,-0.634165 2.572173,-0.634165 z m 39.586937,0 c 0.93634,0 1.75001,0.208402 2.44137,0.625541 0.69135,0.411504 1.20578,0.955646 1.5433,1.632091 0.34295,0.676446 0.51443,1.437444 0.51443,2.283007 0,0.19165 -0.0135,0.3916 -0.0407,0.60017 -0.0489,0.16347 -0.0869,0.25648 -0.11416,0.27903 -0.0218,0.0169 -0.0847,0.003 -0.18813,-0.0421 h -4.91554 c 0,0.56933 0.12776,1.04285 0.38361,1.42053 0.2613,0.37204 0.61531,0.55807 1.0617,0.55807 0.39195,0 0.67775,-0.0985 0.85739,-0.29578 0.17964,-0.1973 0.27475,-0.46241 0.28563,-0.79499 h 2.50702 v 1.89388 c -0.71859,0.44531 -1.42611,0.76116 -2.1229,0.94719 -0.69136,0.18602 -1.47286,0.27903 -2.34386,0.27903 -0.881894,0 -1.682126,-0.20592 -2.4007,-0.61743 -0.713132,-0.41149 -1.268394,-0.9636 -1.665787,-1.65695 -0.397391,-0.69335 -0.595765,-1.45435 -0.595765,-2.283 0,-0.93011 0.187811,-1.756273 0.56343,-2.477815 0.37562,-0.727178 0.928,-1.299166 1.657458,-1.716309 0.73491,-0.422777 1.592303,-0.634165 2.572174,-0.634165 z m 13.1955,0 c 1.79643,0 2.69465,1.161397 2.69465,3.483859 v 3.17083 h 0.65357 v 2.57878 h -4.68723 v -5.30164 c 0,-0.270573 -0.0735,-0.493403 -0.22046,-0.668154 -0.14699,-0.174747 -0.31847,-0.261783 -0.51445,-0.261783 -0.25585,0 -0.46287,0.09301 -0.62075,0.279031 -0.15241,0.186021 -0.2283,0.411335 -0.2283,0.676276 v 2.69749 h 0.71825 v 2.57878 h -5.37266 v -2.57878 h 0.67758 v -3.85573 h -0.62075 v -2.630017 h 4.59758 v 1.319066 c 0.2994,-0.479146 0.69952,-0.845216 1.20034,-1.098885 0.50627,-0.259303 1.08026,-0.389123 1.72263,-0.389123 z m 8.8517,0 c 0.93631,0 1.74999,0.208402 2.44135,0.625541 0.69136,0.411504 1.20579,0.955646 1.5433,1.632091 0.34296,0.676446 0.51443,1.437444 0.51443,2.283007 0,0.19165 -0.0135,0.3916 -0.0407,0.60017 -0.0489,0.16347 -0.0869,0.25648 -0.11415,0.27903 -0.0218,0.0169 -0.0847,0.003 -0.18814,-0.0421 h -4.91554 c 0,0.56933 0.12776,1.04285 0.38362,1.42053 0.2613,0.37204 0.61531,0.55807 1.0617,0.55807 0.39195,0 0.67775,-0.0985 0.85738,-0.29578 0.17967,-0.1973 0.27477,-0.46241 0.28564,-0.79499 h 2.50701 v 1.89388 c -0.71858,0.44532 -1.4261,0.76116 -2.1229,0.94719 -0.69136,0.18602 -1.47286,0.27903 -2.34386,0.27903 -0.88188,0 -1.68213,-0.20592 -2.4007,-0.61743 -0.71312,-0.4115 -1.26839,-0.9636 -1.66578,-1.65695 -0.3974,-0.69335 -0.59577,-1.45435 -0.59577,-2.283 0,-0.93011 0.18781,-1.756273 0.56343,-2.477815 0.37562,-0.727178 0.92801,-1.299166 1.65747,-1.716309 0.7349,-0.422777 1.59228,-0.634165 2.57217,-0.634165 z m -52.398818,0.01674 c 0.827453,0 1.712223,0.262121 2.653992,0.786366 l 0.269465,-0.634166 h 3.699028 v 2.630017 h -0.710409 v 5.293012 c 0,2.95381 -1.889147,4.43054 -5.667108,4.43054 -0.64779,0 -1.24678,-0.0477 -1.796598,-0.14357 -0.544375,-0.0958 -0.892612,-0.17195 -1.045037,-0.22831 -0.14698,-0.0563 -0.256019,-0.10412 -0.326788,-0.14357 v -2.61277 c 1.012538,0.38333 2.003462,0.57481 2.972451,0.57481 0.375602,0 0.685911,-0.0224 0.930879,-0.0675 0.250414,-0.0395 0.476165,-0.12154 0.677583,-0.24555 0.206864,-0.11838 0.356731,-0.29296 0.449274,-0.52407 0.09254,-0.23113 0.138651,-0.52707 0.138651,-0.88784 -0.315738,0.23675 -0.680305,0.42277 -1.094028,0.55807 -0.413726,0.12965 -0.830174,0.19431 -1.249341,0.19431 -0.609701,0 -1.164961,-0.12087 -1.665789,-0.36326 -0.500825,-0.24239 -0.91199,-0.56669 -1.233171,-0.97255 -0.32118,-0.41151 -0.568547,-0.87955 -0.742745,-1.4038 -0.168756,-0.52424 -0.2533,-1.07633 -0.2533,-1.65695 0,-0.777905 0.1662,-1.513547 0.498267,-2.206899 0.337514,-0.698995 0.813513,-1.268505 1.428657,-1.708194 0.620589,-0.445326 1.309387,-0.668157 2.066067,-0.668157 z m 11.464538,0 c 0.827449,0 1.71222,0.262121 2.653991,0.786366 l 0.269464,-0.634163 h 3.699029 v 2.630017 h -0.710409 v 5.293009 c 0,2.95381 -1.889144,4.43054 -5.667107,4.43054 -0.647805,0 -1.246782,-0.0477 -1.796601,-0.14357 -0.544375,-0.0958 -0.892612,-0.17195 -1.045038,-0.22831 -0.146969,-0.0563 -0.25602,-0.10412 -0.326787,-0.14357 v -2.61277 c 1.012535,0.38333 2.003462,0.57481 2.972451,0.57481 0.37562,0 0.685913,-0.0224 0.930882,-0.0675 0.250411,-0.0395 0.476164,-0.12154 0.677582,-0.24555 0.206862,-0.11838 0.356742,-0.29296 0.449272,-0.52407 0.09254,-0.23113 0.138653,-0.52707 0.138653,-0.88784 -0.315737,0.23675 -0.680306,0.42277 -1.094031,0.55807 -0.413726,0.12965 -0.830171,0.19431 -1.24934,0.19431 -0.609701,0 -1.164961,-0.12087 -1.665786,-0.36326 -0.500826,-0.24239 -0.911993,-0.56669 -1.233173,-0.97255 -0.321184,-0.41151 -0.568547,-0.87955 -0.742747,-1.4038 -0.168756,-0.52424 -0.253295,-1.07633 -0.253295,-1.65695 0,-0.777905 0.166196,-1.513544 0.498266,-2.206896 0.337511,-0.698995 0.813515,-1.268505 1.428656,-1.708194 0.620589,-0.445326 1.309384,-0.668157 2.066068,-0.668157 z m -36.50034,0.1522 h 5.258499 v 2.630017 h -0.742746 l 1.379664,3.576702 1.070022,-2.891802 c 0.0871,-0.242395 0.05444,-0.41748 -0.09799,-0.524584 -0.146982,-0.107102 -0.383784,-0.160316 -0.710409,-0.160316 v -2.630014 h 4.466268 v 2.630017 c -0.359287,0 -0.620586,0.05321 -0.7839,0.160316 -0.163309,0.107104 -0.291076,0.276217 -0.383619,0.507334 l -2.376198,5.766859 H 48.674119 L 46.060793,98.88328 H 45.4567 Z m 44.445656,0 h 4.654404 v 6.485749 h 0.685913 v 2.57878 h -5.283485 v -2.57878 h 0.669744 v -3.855732 h -0.726576 z m -28.506522,2.181535 c -0.293961,0 -0.514434,0.138278 -0.661416,0.414494 -0.146979,0.270576 -0.22047,0.577982 -0.22047,0.921822 v 0.245038 h 1.755936 c 0.0055,-0.197297 -3.22e-4,-0.369391 -0.01666,-0.515952 -0.01088,-0.146564 -0.04066,-0.3097 -0.08966,-0.490084 -0.049,-0.186024 -0.138817,-0.327286 -0.269466,-0.423118 -0.130649,-0.101465 -0.296846,-0.1522 -0.498267,-0.1522 z m 39.586946,0 c -0.29396,0 -0.51444,0.138278 -0.66142,0.414494 -0.14698,0.270576 -0.22047,0.577972 -0.22047,0.921822 v 0.245038 h 1.75594 c 0.006,-0.197297 -3.2e-4,-0.369391 -0.0167,-0.515952 -0.0109,-0.146564 -0.0407,-0.3097 -0.0897,-0.490084 -0.049,-0.186024 -0.13882,-0.327286 -0.26947,-0.423118 -0.13065,-0.101465 -0.29685,-0.1522 -0.49826,-0.1522 z m 22.04718,0 c -0.29396,0 -0.51443,0.138278 -0.66141,0.414494 -0.14698,0.270576 -0.22047,0.577967 -0.22047,0.921822 v 0.245038 h 1.75544 c 0.006,-0.197297 1.4e-4,-0.369391 -0.0161,-0.515952 -0.0109,-0.146564 -0.0407,-0.3097 -0.0897,-0.490084 -0.049,-0.186024 -0.13881,-0.327286 -0.26946,-0.423118 -0.13066,-0.101465 -0.29685,-0.1522 -0.49827,-0.1522 z m -51.467925,0.456602 c -0.272188,0 -0.495054,0.09898 -0.669252,0.296281 -0.174202,0.197298 -0.29429,0.434051 -0.359616,0.710264 -0.05988,0.270577 -0.08966,0.577467 -0.08966,0.921327 0,0.33822 0.03266,0.64859 0.09799,0.93044 0.0653,0.27621 0.190692,0.51844 0.375781,0.72701 0.185087,0.20858 0.421891,0.31303 0.710409,0.31303 0.190533,0 0.359125,-0.0622 0.506105,-0.18619 0.152425,-0.12402 0.269629,-0.28169 0.351285,-0.47334 0.08166,-0.19731 0.14121,-0.40023 0.179319,-0.60881 0.04355,-0.20857 0.06565,-0.41748 0.06565,-0.62605 0,-0.32131 -0.03844,-0.62571 -0.114645,-0.913193 -0.07076,-0.293114 -0.198533,-0.546796 -0.383619,-0.761002 -0.185088,-0.219847 -0.408446,-0.329767 -0.669746,-0.329767 z m 11.464537,0 c -0.272187,0 -0.495053,0.09898 -0.669254,0.296281 -0.1742,0.197298 -0.294288,0.434051 -0.359613,0.710264 -0.05988,0.270577 -0.08966,0.577467 -0.08966,0.921327 0,0.33822 0.03266,0.64859 0.09799,0.93044 0.06532,0.27621 0.190694,0.51844 0.375783,0.72701 0.185085,0.20858 0.421888,0.31303 0.710409,0.31303 0.190528,0 0.359124,-0.0622 0.506106,-0.18619 0.152424,-0.12402 0.269629,-0.28169 0.351285,-0.47334 0.08166,-0.19731 0.14121,-0.40023 0.179315,-0.60881 0.04355,-0.20857 0.06566,-0.41748 0.06566,-0.62605 0,-0.32131 -0.03844,-0.62571 -0.114644,-0.913193 -0.07077,-0.293117 -0.198532,-0.546796 -0.383623,-0.761002 -0.185087,-0.219847 -0.408445,-0.329767 -0.669745,-0.329767 z"
       id="rect18"
       inkscape:connector-curvature="0" />
  </g>
</svg>
