<?xml version="1.0" encoding="UTF-8" standalone="no"?>
<!-- Created with Inkscape (http://www.inkscape.org/) -->

<svg
   xmlns:dc="http://purl.org/dc/elements/1.1/"
   xmlns:cc="http://creativecommons.org/ns#"
   xmlns:rdf="http://www.w3.org/1999/02/22-rdf-syntax-ns#"
   xmlns:svg="http://www.w3.org/2000/svg"
   xmlns="http://www.w3.org/2000/svg"
   xmlns:sodipodi="http://sodipodi.sourceforge.net/DTD/sodipodi-0.dtd"
   xmlns:inkscape="http://www.inkscape.org/namespaces/inkscape"
   width="58.850616mm"
   height="12.739219mm"
   viewBox="0 0 58.850616 12.739219"
   version="1.1"
   id="svg96"
   inkscape:version="0.92.3 (2405546, 2018-03-11)"
   sodipodi:docname="logo.svg">
  <defs
     id="defs90" />
  <sodipodi:namedview
     id="base"
     pagecolor="#ffffff"
     bordercolor="#666666"
     borderopacity="1.0"
     inkscape:pageopacity="0.0"
     inkscape:pageshadow="2"
     inkscape:zoom="0.98994949"
     inkscape:cx="8.1162319"
     inkscape:cy="-43.433214"
     inkscape:document-units="mm"
     inkscape:current-layer="layer1"
     showgrid="false"
     fit-margin-top="0"
     fit-margin-left="0"
     fit-margin-right="0"
     fit-margin-bottom="0"
     inkscape:window-width="1860"
     inkscape:window-height="1001"
     inkscape:window-x="30"
     inkscape:window-y="30"
     inkscape:window-maximized="0" />
  <metadata
     id="metadata93">
    <rdf:RDF>
      <cc:Work
         rdf:about="">
        <dc:format>image/svg+xml</dc:format>
        <dc:type
           rdf:resource="http://purl.org/dc/dcmitype/StillImage" />
        <dc:title></dc:title>
      </cc:Work>
    </rdf:RDF>
  </metadata>
  <g
     inkscape:label="Layer 1"
     inkscape:groupmode="layer"
     id="layer1"
     transform="translate(-31.803339,-30.111561)">
    <path
       style="fill:#008000;fill-opacity:1;stroke:#008000;stroke-width:0.10536256"
       d="m 34.014544,30.164242 c -1.195877,0 -2.158524,0.962649 -2.158524,2.158526 v 8.316803 c 0,1.195877 0.962647,2.158527 2.158524,2.158527 h 54.428204 c 1.195856,0 2.158524,-0.96265 2.158524,-2.158527 v -8.316803 c 0,-1.195877 -0.962668,-2.158526 -2.158524,-2.158526 z m 53.387955,1.745114 v 1.725994 h 0.785482 v 1.607134 h -0.785482 l -0.0052,1.669151 c 0,0.134358 0.03617,0.258381 0.108521,0.37207 0.07235,0.110241 0.204983,0.165365 0.39791,0.165365 0.155027,0 0.341063,-0.0241 0.558104,-0.07235 v 1.545124 l -0.191204,0.08785 c -0.127466,0.05857 -0.323837,0.115412 -0.589111,0.170532 -0.265271,0.05857 -0.535712,0.08785 -0.811318,0.08785 -1.316038,0 -1.970606,-0.694187 -1.963706,-2.082562 l 0.0052,-1.943034 h -0.558104 v -1.60713 h 0.532268 V 32.451958 Z M 55.84887,33.531995 c 0.47198,0 0.916398,0.167085 1.333252,0.501261 l 0.211875,-0.397906 h 0.904336 v 2.294432 h -1.250569 c 0,-0.227375 -0.06201,-0.413412 -0.186034,-0.558104 -0.124026,-0.144696 -0.273886,-0.217043 -0.449586,-0.217043 -0.217043,0 -0.404799,0.111966 -0.563274,0.335896 -0.158474,0.223933 -0.237712,0.568442 -0.237712,1.033529 0,0.137805 0.01206,0.268719 0.03617,0.392742 0.02756,0.124023 0.07062,0.24288 0.129191,0.356568 0.05857,0.113686 0.141253,0.204981 0.248047,0.273884 0.110244,0.0689 0.239434,0.103354 0.387574,0.103354 0.110244,0 0.206706,-0.0241 0.289388,-0.07235 0.08613,-0.04823 0.149863,-0.101631 0.191202,-0.160197 0.04479,-0.05857 0.08096,-0.125749 0.108521,-0.201538 0.03099,-0.07924 0.04821,-0.134358 0.05168,-0.165365 0.0069,-0.031 0.01204,-0.05511 0.0155,-0.07235 h 1.240235 v 1.555462 c -0.237712,0.237712 -0.570167,0.420301 -0.997355,0.547769 -0.427194,0.124024 -0.857829,0.186037 -1.291913,0.186037 -0.544322,0 -1.030081,-0.108522 -1.457274,-0.325562 -0.423747,-0.220485 -0.763088,-0.552937 -1.018027,-0.997355 -0.251492,-0.447863 -0.377238,-0.978408 -0.377238,-1.591635 0,-0.375515 0.06201,-0.733806 0.186037,-1.07487 0.127465,-0.341064 0.303167,-0.640789 0.5271,-0.899168 0.227375,-0.258381 0.511596,-0.463365 0.852659,-0.61495 0.341067,-0.15503 0.713137,-0.232545 1.116211,-0.232545 z m 6.082316,0 c 0.592558,0 1.107599,0.127469 1.545127,0.382405 0.437526,0.251492 0.76309,0.583944 0.976683,0.997355 0.217043,0.413412 0.325562,0.878501 0.325562,1.395264 0,0.117134 -0.0086,0.239435 -0.02582,0.366903 -0.03102,0.09992 -0.05513,0.156761 -0.07235,0.170532 -0.01378,0.01032 -0.0534,0.0019 -0.118856,-0.02585 h -3.110934 c 0,0.347954 0.08096,0.637342 0.242879,0.868165 0.165365,0.227375 0.389295,0.341063 0.671793,0.341063 0.248047,0 0.428914,-0.06029 0.542603,-0.180869 0.113678,-0.120578 0.173966,-0.282498 0.180866,-0.485756 h 1.586468 v 1.157552 c -0.454755,0.272161 -0.902615,0.465087 -1.343588,0.578776 -0.437526,0.113686 -0.9319,0.170532 -1.483114,0.170532 -0.558104,0 -1.064535,-0.125746 -1.519285,-0.377238 -0.451311,-0.251492 -0.802709,-0.589113 -1.054201,-1.012859 -0.251492,-0.423749 -0.377237,-0.888836 -0.377237,-1.395265 0,-0.568441 0.118856,-1.073147 0.356568,-1.514117 0.237709,-0.444418 0.587388,-0.794097 1.04903,-1.049034 0.465088,-0.258381 1.007693,-0.387572 1.627807,-0.387572 z m 13.518555,0 c 1.136885,0 1.705324,0.70969 1.705324,2.129071 v 1.937864 h 0.413411 v 1.576133 h -2.966228 v -3.240114 c 0,-0.165364 -0.04651,-0.301445 -0.139528,-0.408244 -0.09301,-0.106796 -0.201538,-0.160197 -0.325559,-0.160197 -0.161922,0 -0.292833,0.05684 -0.392742,0.170534 -0.09646,0.113686 -0.144693,0.251492 -0.144693,0.413412 v 1.648476 h 0.454753 v 1.576133 H 70.654168 V 37.59893 h 0.428916 V 35.242484 H 70.690342 V 33.63535 h 2.909384 v 0.806151 c 0.189479,-0.292833 0.442693,-0.516763 0.759643,-0.671793 0.320394,-0.158475 0.683853,-0.237713 1.090372,-0.237713 z m 5.601726,0 c 0.592556,0 1.107599,0.127469 1.545124,0.382405 0.437529,0.251492 0.76309,0.583944 0.976686,0.997355 0.21704,0.413412 0.325562,0.878501 0.325562,1.395264 0,0.117134 -0.0086,0.239435 -0.02585,0.366903 -0.031,0.09992 -0.05511,0.156761 -0.07235,0.170532 -0.01378,0.01032 -0.05339,0.0019 -0.118856,-0.02585 h -3.11092 c 0,0.347954 0.08096,0.637342 0.242879,0.868165 0.165365,0.227375 0.389298,0.341063 0.671793,0.341063 0.248047,0 0.428916,-0.06029 0.542602,-0.180869 0.113681,-0.120578 0.173969,-0.282498 0.18087,-0.485756 h 1.586465 v 1.157552 c -0.45475,0.272161 -0.902615,0.465087 -1.343586,0.578776 -0.437528,0.113686 -0.931899,0.170532 -1.483114,0.170532 -0.558104,0 -1.064532,-0.125746 -1.519288,-0.377238 -0.451307,-0.251492 -0.802708,-0.589113 -1.054197,-1.012859 -0.251495,-0.423749 -0.377241,-0.888836 -0.377241,-1.395265 0,-0.568441 0.118856,-1.073147 0.356569,-1.514117 0.237712,-0.444418 0.587391,-0.794097 1.04903,-1.049034 0.46509,-0.258381 1.007692,-0.387572 1.62781,-0.387572 z m -31.455444,0.0052 c 0.968071,0 1.729438,0.244604 2.284097,0.733806 0.55466,0.489204 0.831991,1.181666 0.831991,2.077392 0,0.60289 -0.132639,1.126545 -0.397907,1.570963 -0.261829,0.444418 -0.62701,0.780315 -1.095542,1.007692 -0.465087,0.227375 -1.004244,0.341064 -1.617472,0.341064 -0.613227,0 -1.154107,-0.113689 -1.622639,-0.341064 -0.46509,-0.227377 -0.830268,-0.563274 -1.095542,-1.007692 -0.261826,-0.444418 -0.392739,-0.968073 -0.392739,-1.570963 0,-0.895726 0.277328,-1.588188 0.83199,-2.077392 0.554659,-0.489202 1.312582,-0.733806 2.273763,-0.733806 z m -13.012126,0.0052 c 0.523655,0 1.083482,0.160197 1.679485,0.480592 l 0.170532,-0.387572 h 2.340943 v 1.607134 h -0.449585 v 3.234947 c 0,1.805231 -1.195449,2.707844 -3.586345,2.707844 -0.409967,0 -0.788927,-0.02928 -1.136883,-0.08785 -0.344509,-0.05856 -0.564994,-0.105074 -0.661459,-0.139525 -0.09301,-0.03445 -0.161917,-0.06374 -0.206705,-0.08785 v -1.596803 c 0.640789,0.234268 1.267796,0.351399 1.881023,0.351399 0.237712,0 0.434084,-0.01379 0.589111,-0.04134 0.158475,-0.0241 0.301445,-0.07407 0.428916,-0.14986 0.13091,-0.07235 0.225652,-0.179144 0.284218,-0.320395 0.05857,-0.141248 0.08785,-0.322117 0.08785,-0.542602 -0.199818,0.144695 -0.430638,0.258381 -0.692465,0.341064 -0.261829,0.07923 -0.525377,0.118856 -0.790649,0.118856 -0.385852,0 -0.737251,-0.07407 -1.0542,-0.222208 -0.316947,-0.14814 -0.577051,-0.346234 -0.780315,-0.59428 -0.203258,-0.251492 -0.360013,-0.537433 -0.470254,-0.857827 -0.106799,-0.320395 -0.160198,-0.658014 -0.160198,-1.01286 0,-0.475421 0.105074,-0.925009 0.315228,-1.348756 0.213593,-0.42719 0.51504,-0.775147 0.904338,-1.043863 0.392739,-0.272161 0.828545,-0.408244 1.307412,-0.408244 z m 9.544637,0.03617 v 2.149739 l -0.54777,-0.03617 c -0.37896,0 -0.67696,0.110244 -0.894003,0.330729 -0.21704,0.217043 -0.325562,0.53399 -0.325562,0.950846 v 0.625285 h 0.707967 v 1.576133 h -3.482991 v -1.576133 h 0.408244 v -2.356446 h -0.408244 v -1.607134 h 2.806031 v 0.842324 l 0.02066,0.02066 c 0.168809,-0.289388 0.411689,-0.51504 0.728636,-0.67696 0.316949,-0.161917 0.645956,-0.242879 0.98702,-0.242879 z m 23.915854,0 v 2.149739 l -0.547772,-0.03617 c -0.378958,0 -0.676961,0.110244 -0.894001,0.330729 -0.217043,0.217043 -0.325562,0.53399 -0.325562,0.950846 v 0.625285 h 0.707967 v 1.576133 h -3.482991 v -1.576133 h 0.408244 v -2.356446 h -0.408244 v -1.607134 h 2.806031 v 0.842324 l 0.02066,0.02066 c 0.168809,-0.289388 0.411689,-0.51504 0.728638,-0.67696 0.316947,-0.161917 0.645954,-0.242879 0.987021,-0.242879 z m -8.025352,1.390097 c -0.186032,0 -0.32556,0.08441 -0.418579,0.253214 -0.09302,0.165365 -0.139525,0.353121 -0.139525,0.563274 v 0.14986 h 1.111043 c 0.0034,-0.120578 4.8e-5,-0.225652 -0.01035,-0.315224 -0.0069,-0.08957 -0.02585,-0.189482 -0.05685,-0.299726 -0.03101,-0.113688 -0.08785,-0.199816 -0.170532,-0.258381 -0.08268,-0.06201 -0.187756,-0.09302 -0.315227,-0.09302 z m 19.120281,0 c -0.186037,0 -0.325562,0.08441 -0.418579,0.253214 -0.09302,0.165365 -0.139528,0.353121 -0.139528,0.563274 v 0.14986 h 1.111044 c 0.0034,-0.120578 10e-6,-0.225652 -0.01035,-0.315224 -0.0069,-0.08957 -0.02585,-0.189482 -0.05684,-0.299726 -0.03101,-0.113688 -0.08785,-0.199816 -0.170532,-0.258381 -0.08268,-0.06201 -0.187759,-0.09302 -0.315227,-0.09302 z M 49.60119,35.149451 c -0.151582,0 -0.277331,0.03273 -0.377237,0.09819 -0.09991,0.06545 -0.172257,0.161915 -0.217041,0.289388 -0.04479,0.127469 -0.07579,0.253215 -0.09302,0.377238 -0.01378,0.120576 -0.02066,0.268716 -0.02066,0.444415 0,0.864719 0.235989,1.29708 0.707966,1.29708 0.471977,0 0.707967,-0.432361 0.707967,-1.29708 0,-0.175699 -0.0086,-0.323839 -0.02582,-0.444415 -0.01378,-0.124023 -0.04306,-0.249769 -0.08785,-0.377238 -0.04479,-0.127471 -0.117134,-0.223932 -0.217041,-0.289388 -0.09991,-0.06546 -0.225652,-0.09819 -0.377237,-0.09819 z m -12.34033,0.09819 c -0.172257,0 -0.313505,0.06029 -0.423749,0.180867 -0.110241,0.120578 -0.186037,0.265271 -0.227375,0.434081 -0.0379,0.165364 -0.05685,0.353126 -0.05685,0.563274 0,0.206705 0.02066,0.396187 0.06201,0.568441 0.04134,0.16881 0.120576,0.316947 0.237712,0.444418 0.117131,0.127468 0.266994,0.191201 0.449586,0.191201 0.120576,0 0.227375,-0.0379 0.320392,-0.113689 0.09647,-0.07579 0.170537,-0.172254 0.22221,-0.289388 0.05168,-0.120578 0.08958,-0.244602 0.113686,-0.37207 0.02756,-0.127468 0.04134,-0.254937 0.04134,-0.382405 0,-0.196371 -0.02413,-0.382407 -0.07235,-0.558104 -0.04479,-0.179147 -0.125746,-0.334174 -0.242879,-0.46509 -0.117134,-0.134358 -0.258382,-0.201536 -0.423746,-0.201536 z"
       id="rect909"
       inkscape:connector-curvature="0" />
  </g>
</svg>
